PathFileType	4	(X/Y/Z)	Patient4_TMGait_0pt8_01_left_32.trc.trc
DataRate	CameraRate	NumFrames	NumMarkers	Units	OrigDataRate	OrigDataStartFrame	OrigNumFrames
88.050314465409	88.050314465409	4	33	mm	88.050314465409	18	       141
Frame#	Time	Sacral			L.Shoulder			Chest			R.Shoulder			Neck			R.ASIS			L.ASIS			R.Thigh.Superior			R.Thigh.Lateral			R.Thigh.Inferior			R.Patella			L.Thigh.Superior			L.Thigh.Lateral			L.Thigh.Inferior			L.Patella			L.Shank.Superior			L.Shank.Lateral			L.Shank.Inferior			R.Shank.Superior			R.Shank.Lateral			R.Shank.Inferior			R.Heel			R.Midfoot.Superior			R.Midfoot.Lateral			R.Toe			L.Heel			L.Midfoot.Lateral			L.Midfoot.Superior			L.Toe			L.Elbow			L.Wrist			R.Elbow			R.Wrist			
		X1	Y1	Z1	X2	Y2	Z2	X3	Y3	Z3	X4	Y4	Z4	X5	Y5	Z5	X6	Y6	Z6	X7	Y7	Z7	X8	Y8	Z8	X9	Y9	Z9	X10	Y10	Z10	X11	Y11	Z11	X12	Y12	Z12	X13	Y13	Z13	X14	Y14	Z14	X15	Y15	Z15	X16	Y16	Z16	X17	Y17	Z17	X18	Y18	Z18	X19	Y19	Z19	X20	Y20	Z20	X21	Y21	Z21	X22	Y22	Z22	X23	Y23	Z23	X24	Y24	Z24	X25	Y25	Z25	X26	Y26	Z26	X27	Y27	Z27	X28	Y28	Z28	X29	Y29	Z29	X30	Y30	Z30	X31	Y31	Z31	X32	Y32	Z32	X33	Y33	Z33	

18	35.403071428571	851.385307139868	1009.638366630361	530.653672216553	1019.948738896862	1423.509887915238	325.686390638655	1141.378307287175	1354.880842083840	474.097969605258	1083.794939758362	1435.563190844428	655.541160384116	1019.736195419069	1486.766705640084	482.157794974178	1081.280988366628	935.730733780803	629.301857974847	1048.529654672513	950.843345757165	356.150268622640	1066.615659547578	722.214841729275	603.819364814414	956.541222715672	633.669498076170	666.177616791653	1011.469346377035	565.897700599480	585.617130516689	993.178938798599	483.791634487436	589.504963895159	1123.280359635456	777.204347065050	386.027474913047	1084.855306306789	650.890816993138	295.549862980382	1191.881856819213	595.699926441682	356.586954092628	1224.638615085858	534.779930370307	348.098501246876	1212.904126743607	462.796122422634	336.428991312508	1156.534154511383	328.024994679975	284.931558641396	1254.992311633770	236.244521729071	333.767720141080	956.665585671439	403.367550515379	593.745301406929	880.033972651705	302.366524881459	653.306471701480	917.101025642904	207.453175402024	584.952031455540	775.878567566968	44.494411913798	548.445868659378	949.299705213687	97.500681146541	585.838983239077	859.361736914810	37.380401236386	622.144968957057	1067.739145069928	40.792215165446	611.476679907876	1191.996083416011	48.095558786337	372.604100819376	1263.502474673750	59.242476964577	290.761426650891	1326.513635706649	144.486617972608	309.015507329506	1461.780223837833	128.754636195114	280.051149409268	880.619160922101	1093.946015071735	242.452397279345	832.231462954953	840.226899919722	261.254585473615	1219.791903593611	1127.197571479998	778.961247607491	1456.240926565592	1178.600699286915	708.695922914487	
19	35.414428571429	851.233207297278	1008.206967634672	528.336682505029	1019.900772992197	1422.233716359449	324.186090647165	1141.081204327490	1353.439359673391	472.749374308225	1083.050349310530	1434.100339444257	653.985506202958	1019.282724041525	1485.199591555238	480.789659945267	1080.609126206442	934.201687378524	628.172952359062	1049.244240918069	948.739549665832	354.789167104714	1064.197369478561	720.447269883599	602.890064141322	953.294842091177	632.859751733295	665.358786515220	1007.472396663801	564.560454462938	584.756288350288	988.426878239068	482.253779905045	588.760145520404	1123.536428149937	774.911056051567	385.751334579310	1084.357984715714	648.101908884040	295.957021907442	1191.503410029655	593.230260427902	356.515104017686	1223.839502088398	532.071928027789	348.519955915735	1212.047731400430	459.930730128335	337.241103720485	1155.093438479985	324.976320597250	287.483432038586	1253.784453474501	233.531829566184	336.196286851834	950.875611558385	402.298781054311	593.100372161536	873.376046754469	302.230205384897	653.085097408794	909.182500802166	206.861666522306	584.708821407598	766.699016927599	44.459311206850	548.520089780467	940.093361692317	97.435358810602	585.878340608804	850.179956414469	37.303116191750	622.198132629849	1058.563643982716	40.679443802243	611.526887238515	1190.860576937296	46.519239261731	377.282140703093	1261.292255692851	56.743536329669	294.498411965823	1325.134309217090	141.239859728759	311.553100977830	1459.673045340287	124.217226167222	280.996961945954	873.462120817253	1096.698711783603	241.729521530346	818.342887051699	844.445635325457	262.917434402901	1226.217514324812	1129.664889734456	775.918339323277	1458.909886801126	1192.924203579104	704.136828022151	
20	35.425785714286	851.246586624437	1006.678490371829	525.799421598544	1019.879854483413	1420.950139115374	322.509414904594	1140.771489005806	1352.077467413506	471.291140278288	1082.159477300194	1432.672688510882	652.296594680302	1018.801708181625	1483.651275731710	479.249746875432	1080.081265198706	932.675293499142	626.917372884406	1050.170282858686	946.674520696258	353.286094851627	1062.412945329958	718.711833012060	601.801833305768	950.792495889514	631.922436429287	664.281592933445	1004.397943769364	563.129902471655	583.723751846011	984.521838531987	480.571399629865	587.813671726172	1124.292670121171	772.760871691132	385.261847058571	1084.124511240487	645.254864169437	296.715084949123	1191.526229052688	590.800553877198	356.567305078488	1223.188759728520	528.988004995312	349.244157564866	1210.899621416796	456.497069625613	338.461162272623	1152.365698275468	321.826696308128	290.457559317695	1250.456605166403	229.993538531689	339.214414146368	945.865671840139	401.038053345206	592.237619123615	867.286837162918	302.084918431210	652.680208787045	901.588323239440	206.166259496591	584.354716811412	757.557245317122	44.525634380097	548.608472748575	930.918318677866	97.374220591645	585.894321585882	841.033794799399	37.264653506868	622.249578546306	1049.413085883385	40.512291163794	611.596234359998	1185.981492457982	44.900668381466	382.434562859291	1255.338411789259	53.783993389742	298.669684848293	1320.797075219474	136.738071816525	314.753669929564	1454.364083106059	117.187636854285	282.413369883803	867.224033791042	1099.192502203259	241.025676091418	805.596631102038	848.526665000754	264.368716895809	1231.861410022611	1132.008633639262	772.731721080272	1460.561932827350	1206.061187587329	699.746088035488	
21	35.437142857143	851.450049981573	1005.099823973112	523.067718776113	1019.912558754331	1419.682578542765	320.647387830848	1140.470703960605	1350.825799250690	469.718866937126	1081.146071565554	1431.323330870301	650.470501988337	1018.313354331262	1482.161533200991	477.524312978553	1079.715545309328	931.176639741304	625.534841213576	1051.300549611187	944.711909422375	351.648011673044	1061.226160958543	717.014798776743	600.605828743638	948.921905249272	630.896660396207	662.953506025491	1002.149647993223	561.616347217181	582.563213540013	981.364758061415	478.773122704219	586.684099309879	1125.467402028130	770.730934499885	384.550017916711	1084.074402392458	642.407955497056	297.739017148006	1191.819320592938	588.395221803822	356.781367115119	1222.561585667334	525.598201427155	350.333269501368	1209.450979144488	452.632002578443	340.057369537588	1148.625895826073	318.631915412818	293.637337254382	1245.388727149043	225.816469914777	342.674248356862	941.541899552556	399.634764467408	591.181049667391	861.678620463985	301.966022541704	652.087967878234	894.281990028447	205.415343594874	583.906548500982	748.455081600164	44.734284914232	548.714605599282	921.783754719435	97.323541078389	585.883149503508	831.924762159590	37.286799351723	622.302170146957	1040.287492316435	40.293594796496	611.684876834840	1177.963494352525	43.275643436226	387.665639557244	1246.391369600287	50.542969140518	303.009515390901	1314.074314625533	131.269488095984	318.519573584132	1446.535672654187	108.192328884980	284.448984158668	861.943457532008	1101.356707252722	240.311004243849	794.077273387478	852.383439638408	265.557186947013	1236.675630173623	1134.177332324645	769.444482269476	1461.286533428182	1217.941701095014	695.546712495898	
